<?xml version="1.0" standalone="no"?>
<!DOCTYPE svg PUBLIC "-//W3C//DTD SVG 20010904//EN"
 "http://www.w3.org/TR/2001/REC-SVG-20010904/DTD/svg10.dtd">
<svg version="1.0" xmlns="http://www.w3.org/2000/svg"
 width="700.000000pt" height="700.000000pt" viewBox="0 0 700.000000 700.000000"
 preserveAspectRatio="xMidYMid meet">
<metadata>
Created by potrace 1.14, written by Peter Selinger 2001-2017
</metadata>
<g transform="translate(0.000000,700.000000) scale(0.100000,-0.100000)"
fill="#000000" stroke="none">
<path d="M0 3500 l0 -3500 3500 0 3500 0 0 3500 0 3500 -3500 0 -3500 0 0
-3500z m5569 2706 c32 -17 51 -54 51 -101 0 -19 -16 -110 -35 -202 -19 -92
-35 -175 -35 -185 0 -17 14 -18 174 -18 158 0 175 2 180 18 2 9 24 112 47 227
40 197 45 212 75 243 27 27 39 32 81 32 72 -1 113 -42 113 -114 0 -20 -16
-111 -35 -203 -19 -92 -35 -175 -35 -185 0 -16 11 -18 94 -18 146 0 186 -24
186 -114 0 -36 -6 -52 -29 -78 l-29 -33 -138 -5 -138 -5 -38 -180 c-20 -99
-38 -190 -38 -202 0 -22 3 -23 95 -23 139 0 175 -23 175 -112 0 -90 -36 -111
-199 -118 l-125 -5 -46 -225 c-55 -265 -54 -261 -86 -293 -71 -71 -194 -20
-194 80 0 15 18 115 40 221 22 106 40 199 40 208 0 12 -25 14 -177 12 l-176
-3 -49 -235 c-30 -145 -55 -245 -66 -260 -10 -14 -35 -33 -56 -44 -33 -16 -43
-17 -77 -7 -44 13 -79 58 -79 102 0 14 18 115 40 224 22 109 40 205 40 212 0
10 -21 13 -85 13 -101 0 -147 16 -169 59 -25 48 -20 96 13 133 l29 33 133 5
133 5 38 185 c20 102 37 192 38 202 0 14 -15 17 -101 20 -99 3 -101 3 -130 36
-41 46 -41 108 0 154 l29 33 126 3 c107 3 126 6 130 20 2 9 24 112 47 227 40
197 45 212 75 243 26 26 40 32 73 32 23 0 54 -6 70 -14z m-1638 -1407 c363
-296 631 -713 719 -1117 46 -212 49 -399 9 -596 l-20 -98 51 -74 c110 -159
190 -372 206 -547 8 -86 -1 -177 -20 -202 -11 -16 -18 -10 -60 54 -87 130
-191 192 -338 199 -122 6 -211 -16 -361 -90 -156 -77 -199 -93 -316 -123 -360
-92 -784 -34 -1176 160 -268 132 -510 321 -697 545 -85 101 -190 248 -167 234
8 -4 50 -32 94 -62 108 -72 337 -183 465 -225 334 -111 661 -123 947 -36 75
23 263 108 263 119 0 4 -28 29 -62 56 -225 176 -555 497 -810 790 -236 271
-598 724 -598 749 0 4 30 -20 68 -52 276 -244 717 -583 1012 -779 197 -131
196 -132 60 21 -215 241 -407 481 -621 775 -158 217 -157 218 26 45 369 -347
688 -611 1045 -866 146 -104 307 -209 320 -209 10 0 47 121 66 216 27 131 22
370 -9 525 -54 258 -144 464 -322 733 -17 26 -8 22 72 -32 50 -33 119 -84 154
-113z"/>
<path d="M5446 5288 c-22 -106 -42 -203 -44 -215 l-4 -23 194 0 194 0 39 198
c21 108 40 205 43 215 4 16 -10 17 -189 17 l-194 0 -39 -192z"/>
</g>
</svg>
