<?xml version="1.0" encoding="UTF-8"?>
<svg width="1024px" height="1024px" viewBox="0 0 1024 1024" version="1.1" xmlns="http://www.w3.org/2000/svg" xmlns:xlink="http://www.w3.org/1999/xlink">
    <title>Swift_logo_black-Copy-2</title>
    <g id="Page-1" stroke="none" stroke-width="1" fill="none" fill-rule="evenodd">
        <g id="Swift_logo_black-Copy-2" fill-rule="nonzero">
            <rect id="Rectangle" fill="#0D6EFD" x="0" y="0" width="1024" height="1024"></rect>
            <path d="M673.064118,575.043556 C673.67809,572.949713 674.313053,570.866365 674.853558,568.720045 C697.953611,476.680167 641.573111,367.863308 546.166014,310.568627 C587.979102,367.249323 606.461243,435.900083 590.036171,495.939324 C588.572084,501.292006 586.808881,506.434778 584.862012,511.430613 C582.747218,510.045214 580.086672,508.465648 576.513037,506.49775 C576.513037,506.49775 481.604464,447.896387 378.740489,344.248537 C376.043209,341.524967 433.593929,426.506653 498.905889,495.509011 C468.139055,478.233494 382.38759,415.838024 328.095645,366.147301 C334.765378,377.272481 342.69979,387.983091 351.416098,398.294874 C396.75559,455.788967 455.875351,526.732985 526.707814,581.204387 C476.939325,611.662193 406.615881,614.028917 336.602048,581.235874 C319.28488,573.11764 303.001496,563.325382 287.93556,552.200202 C317.574154,599.608165 363.223258,640.508947 418.77988,664.391351 C485.031164,692.865516 550.915116,690.934352 599.985671,664.858398 L599.948938,664.916123 C600.116862,664.811169 600.300529,664.700966 600.4737,664.596012 C602.677704,663.415274 604.860716,662.197801 606.991252,660.922603 C630.694782,648.753125 676.947362,636.746327 701.800121,685.109376 C707.918854,697.01122 720.92772,633.933545 673.106099,575.090785 C673.090356,575.069795 673.079861,575.0593 673.064118,575.043556 Z" id="Path" fill="#FFFFFF"></path>
        </g>
        <g id="/" transform="translate(92.000000, 271.521484)" fill="#FFFFFF" fill-rule="nonzero">
            <polygon id="Path" points="163.740234 0 95.4492188 0 0 472.763672 68.5546875 472.763672"></polygon>
        </g>
        <g id="/-copy" transform="translate(789.000000, 271.521484)" fill="#FFFFFF" fill-rule="nonzero">
            <polygon id="Path" points="163.740234 0 95.4492188 0 0 472.763672 68.5546875 472.763672"></polygon>
        </g>
    </g>
</svg>